<?xml version="1.0" standalone="no"?>
<!DOCTYPE svg PUBLIC "-//W3C//DTD SVG 20010904//EN"
 "http://www.w3.org/TR/2001/REC-SVG-20010904/DTD/svg10.dtd">
<svg version="1.0" xmlns="http://www.w3.org/2000/svg"
 width="225.000000pt" height="225.000000pt" viewBox="0 0 225.000000 225.000000"
 preserveAspectRatio="xMidYMid meet">

<g transform="translate(0.000000,225.000000) scale(0.100000,-0.100000)"
fill="#000000" stroke="none">
<path d="M1699 1863 c12 -18 19 -39 15 -50 -4 -13 -3 -15 4 -4 7 10 14 11 33
1 l24 -11 -21 18 c-12 10 -34 32 -49 48 l-27 30 21 -32z"/>
<path d="M1680 1801 c0 -6 4 -13 10 -16 6 -3 7 1 4 9 -7 18 -14 21 -14 7z"/>
<path d="M1788 1748 c3 -35 0 -53 -9 -60 -10 -6 -7 -7 10 -3 16 5 21 4 17 -4
-4 -6 -14 -11 -22 -11 -23 0 -16 -14 16 -34 17 -9 27 -22 24 -28 -5 -8 -11 -6
-18 3 -6 8 -23 22 -37 31 -20 13 -26 13 -26 3 0 -8 3 -12 7 -10 13 8 48 -40
51 -70 1 -16 -1 -60 -5 -96 -6 -47 -4 -73 5 -90 11 -22 11 -23 -4 -10 -15 12
-17 11 -17 -8 0 -12 5 -19 10 -16 6 4 10 -5 10 -19 0 -27 -14 -35 -24 -13 -3
6 -4 -1 -1 -16 3 -16 2 -34 -3 -40 -5 -7 -12 -25 -16 -41 -6 -26 -5 -27 9 -13
8 9 15 25 15 37 0 20 25 38 36 27 4 -3 -1 -20 -10 -38 -12 -25 -16 -64 -16
-176 0 -79 -4 -142 -9 -139 -4 3 -6 18 -3 33 2 16 1 24 -4 20 -4 -4 -9 -27 -9
-51 -2 -38 0 -42 12 -31 7 8 20 29 29 47 11 25 14 27 10 8 -3 -14 -6 -33 -6
-43 0 -10 -4 -16 -9 -12 -14 8 -23 -13 -13 -31 7 -13 11 -10 21 18 7 18 18 43
23 55 6 11 7 27 3 34 -5 7 -4 10 3 5 10 -6 47 92 76 204 28 108 48 276 50 406
1 116 -1 134 -18 153 -24 27 -84 39 -98 20 -8 -12 -9 -11 -5 1 3 9 -7 21 -28
31 l-31 17 4 -50z m42 -238 c0 -11 -4 -20 -10 -20 -5 0 -10 9 -10 20 0 11 5
20 10 20 6 0 10 -9 10 -20z m-23 -82 c-3 -7 -5 -2 -5 12 0 14 2 19 5 13 2 -7
2 -19 0 -25z m23 -65 c-11 -17 -11 -17 -6 0 3 10 6 24 7 30 0 9 2 9 5 0 3 -7
0 -20 -6 -30z m-7 -53 c3 -11 1 -20 -4 -20 -5 0 -9 9 -9 20 0 11 2 20 4 20 2
0 6 -9 9 -20z m44 -122 c-3 -8 -6 -5 -6 6 -1 11 2 17 5 13 3 -3 4 -12 1 -19z
m20 -50 c-3 -8 -6 -5 -6 6 -1 11 2 17 5 13 3 -3 4 -12 1 -19z m-40 -80 c-3 -8
-6 -5 -6 6 -1 11 2 17 5 13 3 -3 4 -12 1 -19z"/>
<path d="M1570 1776 c0 -2 8 -10 18 -17 15 -13 16 -12 3 4 -13 16 -21 21 -21
13z"/>
<path d="M1655 1690 c3 -5 8 -10 11 -10 2 0 4 5 4 10 0 6 -5 10 -11 10 -5 0
-7 -4 -4 -10z"/>
<path d="M1702 1430 c0 -14 2 -19 5 -12 2 6 2 18 0 25 -3 6 -5 1 -5 -13z"/>
<path d="M1692 1350 c0 -14 2 -19 5 -12 2 6 2 18 0 25 -3 6 -5 1 -5 -13z"/>
<path d="M1651 1214 c0 -11 3 -14 6 -6 3 7 2 16 -1 19 -3 4 -6 -2 -5 -13z"/>
<path d="M1753 1120 c0 -30 2 -43 4 -27 2 15 2 39 0 55 -2 15 -4 2 -4 -28z"/>
<path d="M1715 1079 c-4 -11 -4 -23 -1 -26 3 -4 6 1 6 11 0 9 4 14 10 11 6 -3
7 1 4 9 -8 21 -11 20 -19 -5z"/>
<path d="M1702 990 c-7 -11 -8 -20 -3 -20 9 0 24 30 18 36 -1 2 -8 -6 -15 -16z"/>
<path d="M1736 987 c3 -10 9 -15 12 -12 3 3 0 11 -7 18 -10 9 -11 8 -5 -6z"/>
<path d="M1668 955 c-3 -14 -1 -25 3 -25 5 0 9 11 9 25 0 14 -2 25 -4 25 -2 0
-6 -11 -8 -25z"/>
<path d="M1626 857 c3 -10 9 -15 12 -12 3 3 0 11 -7 18 -10 9 -11 8 -5 -6z"/>
<path d="M1769 845 c-1 -5 -3 -21 -4 -34 -1 -13 -10 -28 -19 -33 -9 -5 -16
-21 -15 -36 0 -27 0 -27 10 -3 5 13 18 36 30 52 15 22 18 33 10 46 -6 10 -11
14 -12 8z"/>
<path d="M1650 831 c0 -6 4 -13 10 -16 6 -3 7 1 4 9 -7 18 -14 21 -14 7z"/>
<path d="M1556 738 c3 -5 10 -6 15 -3 13 9 11 12 -6 12 -8 0 -12 -4 -9 -9z"/>
</g>
</svg>
